<svg {{ with .Class }}class="{{ . }}" {{ end }}{{ with .Width }}width="{{ . }}" {{ end }}{{ with .Height }}height="{{ . }}" {{ end }}xmlns="http://www.w3.org/2000/svg" fill="none" viewBox="0 0 24 24"{{ with .Style }}style="{{ . }} "{{ end }}>
    <path stroke="{{ .Fill | default "currentColor" }}" stroke-linejoin="round" stroke-width="2" d="M4 5a1 1 0 0 1 1-1h4a1 1 0 0 1 1 1v2a1 1 0 0 1-1 1H5a1 1 0 0 1-1-1V5Zm16 14a1 1 0 0 1-1 1h-4a1 1 0 0 1-1-1v-2a1 1 0 0 1 1-1h4a1 1 0 0 1 1 1v2ZM4 13a1 1 0 0 1 1-1h4a1 1 0 0 1 1 1v6a1 1 0 0 1-1 1H5a1 1 0 0 1-1-1v-6Zm16-2a1 1 0 0 1-1 1h-4a1 1 0 0 1-1-1V5a1 1 0 0 1 1-1h4a1 1 0 0 1 1 1v6Z"></path>
</svg>