<svg {{ with .Class }}class="{{ . }}" {{ end }}{{ with .Width }}width="{{ . }}" {{ end }}{{ with .Height }}height="{{ . }}" {{ end }}xmlns="http://www.w3.org/2000/svg" fill="none" viewBox="0 0 24 24"{{ with .Style }}style="{{ . }} "{{ end }}>
    <path stroke="{{ .Fill | default "currentColor" }}" stroke-linecap="round" stroke-linejoin="round" stroke-width="2" d="M9 6H8a1 1 0 0 0-1 1v10a1 1 0 0 0 1 1h1a1 1 0 0 0 1-1V7a1 1 0 0 0-1-1Zm7 0h-1a1 1 0 0 0-1 1v10a1 1 0 0 0 1 1h1a1 1 0 0 0 1-1V7a1 1 0 0 0-1-1Z"></path>
</svg>