<svg {{ with .Class }}class="{{ . }}" {{ end }}{{ with .Width }}width="{{ . }}" {{ end }}{{ with .Height }}height="{{ . }}" {{ end }}xmlns="http://www.w3.org/2000/svg" fill="none" viewBox="0 0 24 24"{{ with .Style }}style="{{ . }} "{{ end }}>
    <path stroke="{{ .Fill | default "currentColor" }}" stroke-linejoin="round" stroke-width="2" d="M16.444 18H19a1 1 0 0 0 1-1v-5a1 1 0 0 0-1-1H5a1 1 0 0 0-1 1v5a1 1 0 0 0 1 1h2.556M17 11V5a1 1 0 0 0-1-1H8a1 1 0 0 0-1 1v6h10ZM7 15h10v4a1 1 0 0 1-1 1H8a1 1 0 0 1-1-1v-4Z"></path>
</svg>