<svg {{ with .Class }}class="{{ . }}" {{ end }}{{ with .Width }}width="{{ . }}" {{ end }}{{ with .Height }}height="{{ . }}" {{ end }}xmlns="http://www.w3.org/2000/svg" fill="{{ .Fill | default "currentColor" }}" viewBox="0 0 24 24"{{ with .Style }}style="{{ . }} "{{ end }}>
    <path fill-rule="evenodd" d="M4 5a2 2 0 0 0-2 2v10a2 2 0 0 0 2 2h16a2 2 0 0 0 2-2V7a2 2 0 0 0-2-2H4Zm0 6h16v6H4v-6Z" clip-rule="evenodd"></path>
  <path fill-rule="evenodd" d="M5 14a1 1 0 0 1 1-1h2a1 1 0 1 1 0 2H6a1 1 0 0 1-1-1Zm5 0a1 1 0 0 1 1-1h5a1 1 0 1 1 0 2h-5a1 1 0 0 1-1-1Z" clip-rule="evenodd"></path>
</svg>