<svg {{ with .Class }}class="{{ . }}" {{ end }}{{ with .Width }}width="{{ . }}" {{ end }}{{ with .Height }}height="{{ . }}" {{ end }}xmlns="http://www.w3.org/2000/svg" fill="{{ .Fill | default "currentColor" }}" viewBox="0 0 24 24"{{ with .Style }}style="{{ . }} "{{ end }}>
    <path fill-rule="evenodd" d="M4 4a2 2 0 0 0-2 2v12a2 2 0 0 0 2 2h16a2 2 0 0 0 2-2V6a2 2 0 0 0-2-2H4Zm16 7H4v7h16v-7ZM5 8a1 1 0 0 1 1-1h.01a1 1 0 0 1 0 2H6a1 1 0 0 1-1-1Zm4-1a1 1 0 0 0 0 2h.01a1 1 0 0 0 0-2H9Zm2 1a1 1 0 0 1 1-1h.01a1 1 0 1 1 0 2H12a1 1 0 0 1-1-1Z" clip-rule="evenodd"></path>
</svg>